<svg width="28" height="22" viewBox="0 0 28 22" fill="none" xmlns="http://www.w3.org/2000/svg">
<path d="M7.60156 21.3145C11.9355 21.3145 14.6973 19.127 14.6973 15.75V15.7363C14.6973 12.8242 13.0566 11.252 9.00977 10.3496L6.84961 9.85742C3.99219 9.22852 2.70703 8.10742 2.70703 6.27539V6.24805C2.70703 4.12891 4.63477 2.69336 7.47852 2.69336C10.2676 2.69336 12.168 4.11523 12.4551 6.42578L12.4688 6.60352H14.3418L14.3281 6.41211C14.0957 3.17188 11.334 0.957031 7.5332 0.957031C3.62305 0.957031 0.820312 3.17188 0.806641 6.30273V6.31641C0.806641 9.11914 2.5293 10.7734 6.35742 11.6348L8.51758 12.1133C11.5527 12.7969 12.7832 13.877 12.7832 15.8184V15.832C12.7832 18.1152 10.7871 19.5781 7.69727 19.5781C4.58008 19.5781 2.47461 18.1289 2.20117 15.8594L2.1875 15.668H0.314453L0.328125 15.8594C0.574219 19.1953 3.41797 21.3145 7.60156 21.3145Z" fill="white"/>
<path d="M17.4043 21H20.4668V1.27148H17.4043V21ZM25.4297 21.2051C26.4277 21.2051 27.2207 20.4121 27.2207 19.4141C27.2207 18.4023 26.4277 17.623 25.4297 17.623C24.418 17.623 23.625 18.4023 23.625 19.4141C23.625 20.4121 24.418 21.2051 25.4297 21.2051Z" fill="#40A9FF"/>
</svg>
